<svg xmlns="http://www.w3.org/2000/svg" viewBox="0 0 420 120" role="img" aria-labelledby="title desc"><title id="title">Digital Ganesh</title><desc id="desc">A circular growth mark beside the words Digital Ganesh.</desc><g transform="translate(8 8)"><path d="M52 4C25.49 4 4 25.49 4 52s21.49 48 48 48c19.7 0 36.63-11.88 44.04-28.86H73.66C68.34 78.25 60.69 82.8 52 82.8c-17.01 0-30.8-13.79-30.8-30.8S34.99 21.2 52 21.2c8.82 0 16.77 3.71 22.39 9.66L86.6 18.74A47.82 47.82 0 0 0 52 4Z" fill="#F7F4EB"/><path d="M47.8 68.1 61 54.9l9.6 9.6 17.7-22.1" fill="none" stroke="#DFF36A" stroke-width="9" stroke-linecap="round" stroke-linejoin="round"/><path d="m79.8 39.8 12.5-2.1-1.5 12.6" fill="none" stroke="#DFF36A" stroke-width="7" stroke-linecap="round" stroke-linejoin="round"/><circle cx="42.5" cy="73.4" r="5.2" fill="#DFF36A"/></g><g fill="#F7F4EB" font-family="Manrope, Arial, sans-serif"><text x="128" y="49" font-size="28" font-weight="700" letter-spacing="5.2">DIGITAL</text><text x="125" y="91" font-size="47" font-weight="800" letter-spacing="-.8">GANESH</text></g></svg>
